{
  "accessors": [
    {
      "bufferView": 2,
      "componentType": 5126,
      "count": 2110,
      "max": [
        0.5475353002548218,
        0.05910520255565643,
        0.6233283877372742
      ],
      "min": [
        -0.5475353002548218,
        4.9874186515808105e-05,
        -0.6233283877372742
      ],
      "type": "VEC3"
    },
    {
      "bufferView": 2,
      "byteOffset": 25320,
      "componentType": 5126,
      "count": 2110,
      "max": [
        1.0,
        1.0,
        0.9999978542327881
      ],
      "min": [
        -1.0,
        -1.0,
        -0.9999977946281433
      ],
      "type": "VEC3"
    },
    {
      "bufferView": 3,
      "componentType": 5126,
      "count": 2110,
      "max": [
        1.75103032233892e-05,
        1.0,
        0.0005885869613848627,
        1.0
      ],
      "min": [
        -1.0,
        -1.0487741519682459e-06,
        -0.8661531209945679,
        1.0
      ],
      "type": "VEC4"
    },
    {
      "bufferView": 1,
      "componentType": 5126,
      "count": 2110,
      "max": [
        0.9912919402122498,
        0.9949581027030945
      ],
      "min": [
        0.004089010413736105,
        0.0067046890035271645
      ],
      "type": "VEC2"
    },
    {
      "bufferView": 1,
      "byteOffset": 16880,
      "componentType": 5126,
      "count": 2110,
      "max": [
        0.9912919402122498,
        0.9949581027030945
      ],
      "min": [
        0.004089010413736105,
        0.0067046890035271645
      ],
      "type": "VEC2"
    },
    {
      "bufferView": 1,
      "byteOffset": 33760,
      "componentType": 5126,
      "count": 2110,
      "max": [
        0.9912919402122498,
        0.9949581027030945
      ],
      "min": [
        0.004089010413736105,
        0.0067046890035271645
      ],
      "type": "VEC2"
    },
    {
      "bufferView": 0,
      "componentType": 5125,
      "count": 3876,
      "type": "SCALAR"
    }
  ],
  "asset": {
    "extras": {
      "author": "plaggy (https://sketchfab.com/plaggy)",
      "license": "CC-BY-4.0 (http://creativecommons.org/licenses/by/4.0/)",
      "source": "https://sketchfab.com/3d-models/cc0-snowflake-aea026ecfe5f4a8c844dde6bd5b4fec8",
      "title": "CC0 - Snowflake"
    },
    "generator": "Sketchfab-14.64.0",
    "version": "2.0"
  },
  "bufferViews": [
    {
      "buffer": 0,
      "byteLength": 15504,
      "name": "floatBufferViews",
      "target": 34963
    },
    {
      "buffer": 0,
      "byteLength": 50640,
      "byteOffset": 15504,
      "byteStride": 8,
      "name": "floatBufferViews",
      "target": 34962
    },
    {
      "buffer": 0,
      "byteLength": 50640,
      "byteOffset": 66144,
      "byteStride": 12,
      "name": "floatBufferViews",
      "target": 34962
    },
    {
      "buffer": 0,
      "byteLength": 33760,
      "byteOffset": 116784,
      "byteStride": 16,
      "name": "floatBufferViews",
      "target": 34962
    }
  ],
  "buffers": [
    {
      "byteLength": 150544,
      "uri": "snowflake.bin"
    }
  ],
  "images": [
    {
      "uri": "textures/Snowflake_baseColor.png"
    },
    {
      "uri": "textures/Snowflake_metallicRoughness.png"
    },
    {
      "uri": "textures/Snowflake_normal.png"
    }
  ],
  "materials": [
    {
      "name": "Snowflake",
      "normalTexture": {
        "index": 2
      },
      "occlusionTexture": {
        "index": 1
      },
      "pbrMetallicRoughness": {
        "baseColorTexture": {
          "index": 0
        },
        "metallicRoughnessTexture": {
          "index": 1
        }
      }
    }
  ],
  "meshes": [
    {
      "name": "Snowflake_Snowflake_0",
      "primitives": [
        {
          "attributes": {
            "NORMAL": 1,
            "POSITION": 0,
            "TANGENT": 2,
            "TEXCOORD_0": 3,
            "TEXCOORD_1": 4,
            "TEXCOORD_2": 5
          },
          "indices": 6,
          "material": 0,
          "mode": 4
        }
      ]
    }
  ],
  "nodes": [
    {
      "children": [
        1
      ],
      "matrix": [
        1.0,
        0.0,
        0.0,
        0.0,
        0.0,
        2.220446049250313e-16,
        -1.0,
        0.0,
        0.0,
        1.0,
        2.220446049250313e-16,
        0.0,
        0.0,
        0.0,
        0.0,
        1.0
      ],
      "name": "Sketchfab_model"
    },
    {
      "children": [
        2
      ],
      "matrix": [
        0.02539999969303608,
        0.0,
        0.0,
        0.0,
        0.0,
        0.0,
        0.02539999969303608,
        0.0,
        0.0,
        -0.02539999969303608,
        0.0,
        0.0,
        0.0,
        0.0,
        0.0,
        1.0
      ],
      "name": "7d62518d4c5d4a6fa923870181e84c7a.fbx"
    },
    {
      "children": [
        3
      ],
      "name": "RootNode"
    },
    {
      "children": [
        4
      ],
      "matrix": [
        1.0,
        0.0,
        0.0,
        0.0,
        0.0,
        2.220446049250313e-16,
        -1.0,
        0.0,
        0.0,
        1.0,
        2.220446049250313e-16,
        0.0,
        0.0,
        0.0,
        0.0,
        1.0
      ],
      "name": "Snowflake"
    },
    {
      "mesh": 0,
      "name": "Snowflake_Snowflake_0"
    }
  ],
  "samplers": [
    {
      "magFilter": 9729,
      "minFilter": 9987,
      "wrapS": 10497,
      "wrapT": 10497
    }
  ],
  "scene": 0,
  "scenes": [
    {
      "name": "Sketchfab_Scene",
      "nodes": [
        0
      ]
    }
  ],
  "textures": [
    {
      "sampler": 0,
      "source": 0
    },
    {
      "sampler": 0,
      "source": 1
    },
    {
      "sampler": 0,
      "source": 2
    }
  ]
}
